<svg xmlns="http://www.w3.org/2000/svg" xmlns:xlink="http://www.w3.org/1999/xlink" width="100" zoomAndPan="magnify" viewBox="0 0 75 74.999997" height="100" preserveAspectRatio="xMidYMid meet" version="1.0"><defs><g/><clipPath id="id1"><path d="M 11.222656 34.105469 L 63.722656 34.105469 L 63.722656 40.855469 L 11.222656 40.855469 Z M 11.222656 34.105469 " clip-rule="nonzero"/></clipPath></defs><g clip-path="url(#id1)"><path fill="#ffffff" d="M 11.222656 34.105469 L 63.722656 34.105469 L 63.722656 40.855469 L 11.222656 40.855469 L 11.222656 34.105469 " fill-opacity="1" fill-rule="nonzero"/></g><g fill="#1f2122" fill-opacity="1"><g transform="translate(26.306877, 38.399996)"><g><path d="M 1.28125 0 L 0.90625 -0.5625 L 0.578125 0 L 0.078125 0 L 0.65625 -0.9375 L 0.0625 -1.828125 L 0.578125 -1.828125 L 0.953125 -1.28125 L 1.265625 -1.828125 L 1.78125 -1.828125 L 1.203125 -0.90625 L 1.796875 0 Z M 1.28125 0 "/></g></g></g><g fill="#1f2122" fill-opacity="1"><g transform="translate(29.148163, 38.399996)"><g><path d="M 1.296875 -0.328125 L 0.625 -0.328125 L 0.515625 0 L 0.046875 0 L 0.703125 -1.828125 L 1.21875 -1.828125 L 1.890625 0 L 1.40625 0 Z M 1.1875 -0.671875 L 0.953125 -1.34375 L 0.734375 -0.671875 Z M 1.1875 -0.671875 "/></g></g></g><g fill="#1f2122" fill-opacity="1"><g transform="translate(32.046785, 38.399996)"><g><path d="M 1.296875 -0.328125 L 0.625 -0.328125 L 0.515625 0 L 0.046875 0 L 0.703125 -1.828125 L 1.21875 -1.828125 L 1.890625 0 L 1.40625 0 Z M 1.1875 -0.671875 L 0.953125 -1.34375 L 0.734375 -0.671875 Z M 1.1875 -0.671875 "/></g></g></g><g fill="#1f2122" fill-opacity="1"><g transform="translate(34.945407, 38.399996)"><g><path d="M 1.484375 -1.828125 L 1.484375 -1.46875 L 1 -1.46875 L 1 0 L 0.546875 0 L 0.546875 -1.46875 L 0.0625 -1.46875 L 0.0625 -1.828125 Z M 1.484375 -1.828125 "/></g></g></g><g fill="#1f2122" fill-opacity="1"><g transform="translate(37.463516, 38.399996)"><g><path d="M 0.609375 -1.46875 L 0.609375 -1.109375 L 1.203125 -1.109375 L 1.203125 -0.765625 L 0.609375 -0.765625 L 0.609375 -0.359375 L 1.28125 -0.359375 L 1.28125 0 L 0.15625 0 L 0.15625 -1.828125 L 1.28125 -1.828125 L 1.28125 -1.46875 Z M 0.609375 -1.46875 "/></g></g></g><g fill="#1f2122" fill-opacity="1"><g transform="translate(39.851313, 38.399996)"><g><path d="M 1.75 -1.828125 L 1.75 0 L 1.296875 0 L 1.296875 -0.75 L 0.609375 -0.75 L 0.609375 0 L 0.15625 0 L 0.15625 -1.828125 L 0.609375 -1.828125 L 0.609375 -1.109375 L 1.296875 -1.109375 L 1.296875 -1.828125 Z M 1.75 -1.828125 "/></g></g></g></svg>